<?xml version="1.0" encoding="UTF-8"?>
<svg version="1.1" xmlns="http://www.w3.org/2000/svg" width="500" height="500">
<path d="M0 0 C165 0 330 0 500 0 C500 165 500 330 500 500 C335 500 170 500 0 500 C0 335 0 170 0 0 Z " fill="#131313" transform="translate(0,0)"/>
<path d="M0 0 C1.72243469 -0.00435276 3.44486745 -0.00953778 5.16729736 -0.01548767 C9.82666872 -0.0288313 14.48595872 -0.02946129 19.14534545 -0.02692437 C23.04644934 -0.02585106 26.94753701 -0.03074747 30.8486374 -0.03552979 C40.06072514 -0.04660994 49.27277211 -0.04707143 58.48486328 -0.04101562 C67.95912354 -0.03498273 77.43323504 -0.0472729 86.90746993 -0.06858569 C95.06577405 -0.08625722 103.22403107 -0.09219415 111.3823536 -0.08894795 C116.24413717 -0.08714306 121.10581471 -0.08969097 125.9675808 -0.10366249 C130.54528822 -0.11632611 135.12276568 -0.11421685 139.70046997 -0.1012516 C141.3700449 -0.09890436 143.03963644 -0.10155312 144.70919228 -0.10987473 C171.52524744 -0.2337789 194.90293141 9.12953663 214.45629883 27.64575195 C233.43929489 47.75122083 240.63049591 72.40564275 240.48364258 99.4934082 C240.48634857 101.28926807 240.49024007 103.0851265 240.49523926 104.88098145 C240.50108244 108.61570403 240.49274115 112.35003978 240.47387695 116.0847168 C240.45109052 120.82134567 240.46424183 125.55706726 240.48816681 130.29366302 C240.50276661 133.99337338 240.49795468 137.69287605 240.48765564 141.39259338 C240.48502729 143.13692844 240.48811726 144.88128369 240.49757385 146.62559509 C240.62299793 176.24534717 230.42773433 201.86296219 209.95239258 223.2746582 C200.87077171 232.38800922 191.35888177 241.66639897 180.95239258 249.2746582 C180.29239258 249.2746582 179.63239258 249.2746582 178.95239258 249.2746582 C178.70489258 249.84700195 178.45739258 250.4193457 178.20239258 251.0090332 C176.75923058 253.62476432 175.07023035 255.42239276 172.95239258 257.5246582 C171.90051758 258.58426758 171.90051758 258.58426758 170.82739258 259.6652832 C168.95239258 261.2746582 168.95239258 261.2746582 166.95239258 261.2746582 C166.61208008 262.1099707 166.61208008 262.1099707 166.26489258 262.9621582 C163.10434599 268.53074028 157.41692589 272.5522908 152.64770508 276.70043945 C150.50030688 278.75136034 148.59411126 280.79263038 146.66333008 283.03637695 C142.144385 288.2811217 137.20488282 293.0714075 132.26879883 297.91918945 C128.18900781 301.95471511 124.30591281 306.07843677 120.56079102 310.42602539 C109.18303298 323.50319355 95.65736768 335.70633317 78.95239258 341.2746582 C77.21893451 341.3625088 75.48225988 341.39230634 73.74658203 341.38818359 C72.15527214 341.3880703 72.15527214 341.3880703 70.53181458 341.38795471 C69.38798813 341.38279343 68.24416168 341.37763214 67.06567383 341.37231445 C65.89352829 341.37089951 64.72138275 341.36948456 63.51371765 341.36802673 C59.76408351 341.36242209 56.01450872 341.34986877 52.26489258 341.3371582 C49.7251799 341.3321438 47.18546628 341.32758079 44.64575195 341.32348633 C38.41461185 341.31245114 32.18350646 341.29570846 25.95239258 341.2746582 C25.90601299 327.59215483 25.87049473 313.90967022 25.84876823 300.22710419 C25.83833962 293.87346109 25.82419712 287.51987186 25.80151367 281.16625977 C25.77975262 275.03249076 25.76781701 268.89877351 25.76263809 262.76496887 C25.75894821 260.42705979 25.75174282 258.08915348 25.74093246 255.75126648 C25.72637438 252.47189251 25.72441647 249.19273127 25.7253418 245.91333008 C25.71815125 244.950914 25.71096069 243.98849792 25.70355225 242.99691772 C25.74430403 229.61376358 30.39606653 218.65708952 39.81018066 209.05300903 C51.1994588 198.48408642 64.17480653 197.12505989 79.04614258 197.3449707 C80.93225956 197.34252222 82.81837501 197.33625175 84.70446777 197.3263855 C89.62051995 197.30944129 94.53517556 197.33788839 99.4510498 197.37835693 C107.34347012 197.43437139 115.23618366 197.41501041 123.1287384 197.40508652 C125.86748931 197.40742489 128.60570688 197.42628029 131.34436035 197.44851685 C133.03076102 197.45472232 134.71716237 197.46074403 136.40356445 197.46655273 C137.15382904 197.47696091 137.90409363 197.48736908 138.67709351 197.49809265 C148.96229171 197.50384313 158.59531354 194.18682729 166.25708008 187.16137695 C168.28758224 184.94314912 170.14450495 182.67691984 171.95239258 180.2746582 C172.43450195 179.64817383 172.91661133 179.02168945 173.41333008 178.3762207 C180.70703661 167.89980586 181.56366344 155.72133319 181.48364258 143.3684082 C181.48634734 141.87113189 181.49023786 140.37385731 181.49523926 138.87658691 C181.50108826 135.76024416 181.49272233 132.64436446 181.47387695 129.52807617 C181.45108949 125.57109444 181.46423768 121.61519861 181.48816681 117.65825653 C181.50275089 114.57289729 181.49796183 111.48778758 181.48765564 108.40242004 C181.48502297 106.94505173 181.48813337 105.48765933 181.49757385 104.03031921 C181.55628752 92.42520467 180.55271547 80.2980947 172.77270508 71.05200195 C161.89482588 60.43089673 150.73971385 58.81903161 136.01928711 58.87060547 C134.53663115 58.86489259 133.05397958 58.8579248 131.57133484 58.84980774 C127.57378776 58.83197387 123.57646131 58.83302473 119.57888651 58.83875012 C116.23597935 58.8418526 112.89311393 58.83573862 109.55021274 58.82971138 C101.66796087 58.81570335 93.78581751 58.81719964 85.90356445 58.82861328 C77.77469858 58.84012387 69.64616149 58.82596128 61.51733887 58.79921681 C54.52687545 58.77707986 47.53651543 58.77041691 40.54601943 58.77629322 C36.3753475 58.77966484 32.20488693 58.77723274 28.03424454 58.76004219 C24.118829 58.74460422 20.20390342 58.74849293 16.28850746 58.76734734 C14.851779 58.77104031 13.41501443 58.76790408 11.97831917 58.75746155 C10.01847082 58.74430246 8.05849632 58.75817573 6.09866333 58.77345276 C5.00181276 58.77366204 3.9049622 58.77387133 2.77487373 58.77408695 C-0.07657618 59.1169992 -0.07657618 59.1169992 -2.39931297 60.61392498 C-5.08299132 64.94601027 -4.60268039 69.35314782 -4.56658936 74.34759521 C-4.57409061 75.49032402 -4.58159186 76.63305283 -4.58932042 77.81040978 C-4.60612483 80.98260102 -4.60502001 84.15420909 -4.5964129 87.32641482 C-4.59147475 90.74701422 -4.60954456 94.1675005 -4.62483215 97.58805847 C-4.64816456 103.51447881 -4.65689181 109.44077672 -4.65572357 115.36724091 C-4.65405557 123.93590197 -4.67437633 132.50439964 -4.70007887 141.07301715 C-4.74118071 154.97469553 -4.76447807 168.87634456 -4.77661133 182.77807617 C-4.78843631 196.28298769 -4.80862624 209.78784394 -4.84008789 223.29272461 C-4.84202399 224.12504548 -4.84396009 224.95736635 -4.84595487 225.81490907 C-4.85571931 229.99038274 -4.86564845 234.16585601 -4.87565947 238.3413291 C-4.95850903 272.98574703 -5.01247743 307.63016027 -5.04760742 342.2746582 C-10.43695809 342.37418453 -15.82576353 342.44643479 -21.21582031 342.49438477 C-23.04599335 342.51439195 -24.87610334 342.54160671 -26.70605469 342.57641602 C-29.35001255 342.62541823 -31.99311907 342.64773581 -34.63745117 342.6652832 C-35.84738991 342.69625092 -35.84738991 342.69625092 -37.08177185 342.72784424 C-44.06180186 342.73054742 -50.00302593 340.79344848 -55.42260742 336.30981445 C-55.95885742 335.65883789 -56.49510742 335.00786133 -57.04760742 334.3371582 C-57.60448242 333.68875977 -58.16135742 333.04036133 -58.73510742 332.37231445 C-61.04981874 328.67290976 -61.17256622 324.71280268 -61.17624187 320.43218994 C-61.18107854 319.00283222 -61.18107854 319.00283222 -61.18601292 317.54459858 C-61.18446432 316.50580146 -61.18291572 315.46700434 -61.18132019 314.39672852 C-61.18358575 313.28681895 -61.1858513 312.17690939 -61.18818551 311.0333662 C-61.19452601 307.30649468 -61.1936961 303.57965953 -61.19287109 299.8527832 C-61.19586264 297.18351607 -61.19923684 294.5142518 -61.20304871 291.84498596 C-61.21135355 285.34082898 -61.21410352 278.83668107 -61.21466108 272.33251923 C-61.21513655 267.04193982 -61.21719283 261.75136338 -61.22036171 256.46078491 C-61.22916967 241.4490325 -61.23378114 226.43728724 -61.23303124 211.42553222 C-61.23299128 210.61632485 -61.23295132 209.80711748 -61.23291016 208.97338867 C-61.23286928 208.16318838 -61.23282839 207.35298809 -61.23278628 206.51823628 C-61.23238029 193.4035087 -61.24193739 180.28880989 -61.25604852 167.17409062 C-61.27043543 153.69620961 -61.27731736 140.2183426 -61.27645475 126.74045372 C-61.27612346 119.17855998 -61.27884016 111.61669637 -61.2896328 104.05480957 C-61.29876854 97.61261206 -61.30088812 91.17045832 -61.29412337 84.72825712 C-61.29087293 81.44564479 -61.29184855 78.1631331 -61.29947662 74.88052559 C-61.30723408 71.30976221 -61.30252678 67.73921599 -61.29484558 64.16845703 C-61.29998914 63.14750568 -61.30513271 62.12655434 -61.31043214 61.07466507 C-61.2211191 42.1631713 -56.49371438 27.04981136 -43.14526367 13.31762695 C-30.36059535 1.31729411 -16.67006486 -0.02788224 0 0 Z " fill="#FDF9EB" transform="translate(162.047607421875,78.725341796875)"/>
<path d="M0 0 C165 0 330 0 500 0 C500 165 500 330 500 500 C335 500 170 500 0 500 C0 335 0 170 0 0 Z M29 25 C28.30390625 25.60199219 27.6078125 26.20398438 26.890625 26.82421875 C11.27984307 41.21735969 2.4958418 62.13904127 1 83 C0.85757315 87.62759182 0.8521572 92.25243249 0.85282898 96.88197327 C0.849523 98.2685468 0.84579591 99.65511938 0.8416875 101.04169077 C0.83174336 104.82860871 0.82796308 108.61551082 0.82529819 112.40243995 C0.82137262 116.4960222 0.81179624 120.58959217 0.80308533 124.6831665 C0.78338803 134.55532027 0.77326497 144.42747495 0.76435754 154.29964343 C0.75996508 158.95714757 0.75460091 163.61465059 0.74936867 168.27215385 C0.73236595 183.76761292 0.71787248 199.2630713 0.71061993 214.75853825 C0.70871029 218.77318892 0.70678991 222.78783958 0.70483398 226.80249023 C0.70435024 227.80021312 0.7038665 228.79793601 0.7033681 229.82589292 C0.69507012 245.98335743 0.66973281 262.14074787 0.63725331 278.29818005 C0.60412807 294.91315252 0.58616638 311.5280874 0.58297569 328.14309305 C0.58081605 337.46118075 0.57214729 346.77916028 0.54651451 356.09721565 C0.52473301 364.03312249 0.51679369 371.96889485 0.52648129 379.9048282 C0.53100401 383.94751588 0.52925908 387.98992652 0.50971985 392.03257561 C0.42350909 410.90781606 0.45569909 428.78148803 8.6875 446.25 C9.02998779 446.9932251 9.37247559 447.7364502 9.7253418 448.50219727 C20.42475076 470.97797447 38.45083379 486.03052101 61.4375 494.875 C78.04788817 499.43661366 95.86356923 498.2841861 112.92070448 498.24679029 C116.96638587 498.24014252 121.01205624 498.24517695 125.05773926 498.24867249 C132.96029309 498.2536858 140.86280471 498.2481094 148.76535328 498.23882218 C157.98391331 498.22838202 167.20246448 498.22850985 176.42102931 498.22899476 C192.87615404 498.22949418 209.33125926 498.22036598 225.78637695 498.20581055 C241.72583369 498.1917187 257.66527327 498.18464019 273.60473633 498.18530273 C274.58702391 498.18534269 275.5693115 498.18538265 276.58136537 498.18542381 C278.05234111 498.18548435 278.05234111 498.18548435 279.55303353 498.1855461 C297.74373815 498.18623722 315.93443553 498.1803395 334.1251378 498.17139288 C340.53980755 498.16838628 346.95447597 498.16731449 353.36914635 498.16686058 C361.19185187 498.16617603 369.01454519 498.1616778 376.83724555 498.15252777 C380.82280175 498.14793467 384.80834242 498.14485503 388.79390144 498.14612198 C392.451022 498.1472281 396.10810837 498.14363206 399.76522181 498.13647345 C401.69563622 498.13383995 403.62605539 498.13600108 405.5564701 498.1384055 C432.54841108 498.06448253 454.41624818 491.46396336 474.1875 472.3125 C479.92936773 466.53398985 484.16923747 460.19874839 488 453 C488.56589844 451.9378125 489.13179688 450.875625 489.71484375 449.78125 C493.55250813 442.04962299 495.52505837 434.47192081 497 426 C497.24287638 424.86949218 497.24287638 424.86949218 497.49065936 423.71614581 C499.0372896 416.19678119 499.28660524 408.95717576 499.26742554 401.29716492 C499.27116981 399.94216387 499.27577441 398.58716498 499.28115618 397.23216945 C499.29330653 393.53695127 499.29313518 389.84182415 499.29076743 386.14659059 C499.29035721 382.14972015 499.3014182 378.15287812 499.31088257 374.15602112 C499.32745192 366.33419356 499.33299035 358.51239615 499.33410732 350.6905525 C499.33506014 344.32467585 499.33918208 337.95880908 499.34550858 331.59293556 C499.36311324 313.50798039 499.37234916 295.42304888 499.37084763 277.33808508 C499.37076772 276.36437589 499.3706878 275.3906667 499.37060547 274.38745117 C499.37048283 272.92508388 499.37048283 272.92508388 499.37035771 271.43317381 C499.36954599 255.65743683 499.38865691 239.88179559 499.4168822 224.10608628 C499.44569628 207.87186687 499.45941769 191.637694 499.45769465 175.4034484 C499.45703348 166.30375709 499.46240483 157.20416604 499.48405075 148.10449791 C499.50237556 140.35173887 499.50651845 132.59912549 499.4930319 124.84635403 C499.48655745 120.90025591 499.48618114 116.95443625 499.5037384 113.00836563 C499.64232094 79.68450302 496.36776805 51.51805056 472.1875 26.75 C466.62240769 21.22269993 460.93370292 16.73678951 454 13 C452.84177734 12.33291016 452.84177734 12.33291016 451.66015625 11.65234375 C441.40188073 6.07088602 428.73226758 1.87929453 417.03028774 1.87136555 C415.82596141 1.8681411 414.62163508 1.86491665 413.38081402 1.8615945 C412.0611865 1.8631431 410.74155898 1.8646917 409.38194275 1.86628723 C407.96312304 1.86441881 406.54430385 1.86211799 405.12548548 1.85942191 C401.22640075 1.853301 397.32733744 1.85343786 393.428249 1.85461628 C389.22288407 1.85482022 385.01752603 1.84930206 380.81216431 1.84455872 C372.57176292 1.83624927 364.3313687 1.83350371 356.09096348 1.83294634 C349.39066918 1.83247118 342.69037724 1.83041643 335.99008369 1.82724571 C316.98896389 1.8184372 297.98784974 1.81382647 278.98672789 1.81457619 C277.96219411 1.81461614 276.93766033 1.8146561 275.88208008 1.81469727 C274.85629321 1.81473815 273.83050635 1.81477903 272.77363504 1.81482115 C256.15984369 1.81522735 239.54607503 1.80566486 222.93229025 1.7915589 C205.86888515 1.77718571 188.8054911 1.77028928 171.74207979 1.77115268 C162.16421937 1.77148439 152.58638272 1.76874868 143.00852776 1.75797462 C134.85096548 1.74885708 126.69343774 1.74670456 118.53587257 1.75348405 C114.37645472 1.75674333 110.21710308 1.75682744 106.05769157 1.7481308 C102.2435011 1.74023831 98.42942904 1.74172514 94.61524136 1.75041493 C92.59528728 1.7526635 90.57532944 1.74514276 88.55538982 1.73717529 C65.6823321 1.8232134 46.05766388 9.68565082 29 25 Z " fill="#F6F6F6" transform="translate(0,0)"/>
<path d="M0 0 C-1.46966358 3.39859703 -3.38037514 5.64963709 -6 8.25 C-7.051875 9.30960937 -7.051875 9.30960937 -8.125 10.390625 C-10 12 -10 12 -12 12 C-12.226875 12.556875 -12.45375 13.11375 -12.6875 13.6875 C-15.84804659 19.25608208 -21.53546668 23.2776326 -26.3046875 27.42578125 C-28.4520857 29.47670214 -30.35828132 31.51797218 -32.2890625 33.76171875 C-36.80800758 39.00646349 -41.74750976 43.7967493 -46.68359375 48.64453125 C-50.76338477 52.6800569 -54.64647977 56.80377857 -58.39160156 61.15136719 C-68.07485278 72.2809328 -80.69069202 85.2108807 -95 90 C-95.66 89.67 -96.32 89.34 -97 89 C-96.34 88.01 -95.68 87.02 -95 86 C-94.69961568 83.67457745 -94.69961568 83.67457745 -94.74462891 81.06054688 C-94.73766998 80.05519897 -94.73071106 79.04985107 -94.72354126 78.01403809 C-94.72453827 76.92659302 -94.72553528 75.83914795 -94.7265625 74.71875 C-94.706257 72.40884947 -94.68540593 70.09895368 -94.6640625 67.7890625 C-94.64155294 64.15327975 -94.62502864 60.51768493 -94.61914062 56.88183594 C-94.60955001 53.36879536 -94.57567422 49.85659906 -94.5390625 46.34375 C-94.54410797 45.27249878 -94.54915344 44.20124756 -94.55435181 43.09753418 C-94.43211597 33.59970761 -92.42265849 24.55824582 -85.69921875 17.49609375 C-78.12763356 10.82961759 -70.3429306 8.72538529 -60.4609375 8.65625 C-59.25686752 8.6343158 -59.25686752 8.6343158 -58.0284729 8.61193848 C-55.47736555 8.56578474 -52.92632835 8.53143817 -50.375 8.5 C-34.01391697 8.29583982 -19.5922238 7.27116345 -4.3125 0.875 C-2 0 -2 0 0 0 Z " fill="#FA6143" transform="translate(341,328)"/>
<path d="M0 0 C0 136.95 0 273.9 0 415 C-0.33 415 -0.66 415 -1 415 C-1.00059709 414.31008386 -1.00119418 413.62016772 -1.00180936 412.90934503 C-1.03777086 371.94061208 -1.09451315 330.9719532 -1.17792095 290.00328805 C-1.18793737 285.07462072 -1.19778168 280.14595305 -1.20751953 275.21728516 C-1.2094609 274.23615311 -1.21140228 273.25502107 -1.21340248 272.24415775 C-1.24435048 256.39663414 -1.26138296 240.54912498 -1.27319422 224.70157687 C-1.28564321 208.41795096 -1.31322868 192.1344004 -1.35461307 175.85082209 C-1.37964162 165.81807251 -1.3931251 155.78544803 -1.39142957 145.75266679 C-1.39139962 138.85538558 -1.40618654 131.95823098 -1.43216428 125.0609992 C-1.44668719 121.09272232 -1.45512078 117.12470498 -1.44580269 113.1564064 C-1.37770247 80.22188526 -4.38539343 51.80805154 -28.3125 27.25 C-33.70183727 21.90033597 -39.3105115 17.64698017 -46 14 C-46.7734375 13.55398438 -47.546875 13.10796875 -48.34375 12.6484375 C-58.57195375 7.09111346 -71.21219165 2.8916814 -82.87829304 2.8613348 C-84.65408236 2.85312313 -84.65408236 2.85312313 -86.46574622 2.84474558 C-87.76243159 2.84376747 -89.05911696 2.84278936 -90.39509583 2.84178162 C-91.78947027 2.83721436 -93.18384334 2.8322141 -94.57821482 2.82681805 C-98.40924548 2.81324616 -102.24026726 2.80582133 -106.07131565 2.79939139 C-110.20283794 2.79138329 -114.3343418 2.77768691 -118.46585083 2.76467896 C-125.62378678 2.74292204 -132.78172459 2.72477467 -139.93967628 2.70907402 C-150.28889216 2.68636826 -160.63808762 2.6582264 -170.98728617 2.62875474 C-187.77789206 2.58108751 -204.56850629 2.53782096 -221.35913086 2.49731445 C-237.67033538 2.45795511 -253.98153249 2.41652783 -270.29272461 2.37231445 C-271.80068045 2.36822804 -271.80068045 2.36822804 -273.33910004 2.36405908 C-278.38237897 2.35037953 -283.4256578 2.33665927 -288.46893656 2.32291877 C-330.31260893 2.20896764 -372.15629728 2.10215526 -414 2 C-414 1.67 -414 1.34 -414 1 C-372.37887263 0.87121459 -330.75774151 0.74370911 -289.13660528 0.61781773 C-284.17367107 0.6028053 -279.21073689 0.58778274 -274.24780273 0.57275391 C-273.26016346 0.56976329 -272.27252418 0.56677268 -271.25495645 0.56369144 C-255.46074987 0.51584198 -239.6665459 0.46718029 -223.8723428 0.41819459 C-207.55120449 0.36759359 -191.23006353 0.3179205 -174.90891999 0.26903296 C-164.91474566 0.23906992 -154.9205738 0.20846224 -144.92640438 0.17690456 C-137.98440078 0.15505532 -131.04239468 0.13414184 -124.10038642 0.11383021 C-120.15170066 0.10225323 -116.20301669 0.0903958 -112.2543354 0.07737541 C-74.83617619 -0.04405607 -37.41856724 0 0 0 Z " fill="#EEEEEE" transform="translate(500,0)"/>
<path d="M0 0 C139.59 0 279.18 0 423 0 C423 0.33 423 0.66 423 1 C421.94176895 1.00146521 421.94176895 1.00146521 420.86215949 1.00296003 C378.98336159 1.06132185 337.10461574 1.13518625 295.2258815 1.22898628 C290.18948765 1.24025349 285.15309353 1.2513921 280.11669922 1.26245117 C278.61281276 1.2657567 278.61281276 1.2657567 277.07854477 1.269129 C260.87724901 1.30443309 244.6759533 1.32933603 228.47463343 1.35034702 C211.8316836 1.37216408 195.18878337 1.4052702 178.54587579 1.44870156 C168.28896264 1.47511686 158.03211121 1.49288662 147.77516577 1.49934604 C140.72700679 1.50463106 133.67892527 1.52095146 126.63080791 1.54566566 C122.57370871 1.55957482 118.51674782 1.56889164 114.45962334 1.56500816 C82.931226 1.18071108 82.931226 1.18071108 53 10 C51.91332031 10.515625 50.82664063 11.03125 49.70703125 11.5625 C41.96700628 15.48241886 35.45357177 20.22410539 29 26 C28.37738281 26.52851563 27.75476563 27.05703125 27.11328125 27.6015625 C11.72665118 41.58940802 3.60543317 62.7630924 2 83 C1.34 83 0.68 83 0 83 C0 55.61 0 28.22 0 0 Z " fill="#FCFCFC" transform="translate(0,0)"/>
<path d="M0 0 C1.00707001 -0.0087616 2.01414001 -0.01752319 3.05172729 -0.02655029 C6.37737232 -0.04853923 9.70168544 -0.03399243 13.02734375 -0.01708984 C15.33992773 -0.0204581 17.65250998 -0.02531079 19.96508789 -0.03158569 C24.81055566 -0.03895638 29.6555624 -0.02824456 34.50097656 -0.00488281 C40.71219071 0.02360433 46.92232464 0.00720152 53.13349915 -0.02274513 C57.90848938 -0.04081235 62.68322349 -0.03506255 67.45822144 -0.02210617 C69.74836352 -0.0187706 72.03852886 -0.02286448 74.3286438 -0.03450394 C77.52961831 -0.04720245 80.72884332 -0.02784762 83.9296875 0 C84.8763327 -0.01012115 85.82297791 -0.02024231 86.79830933 -0.03067017 C91.38279452 0.04322462 93.3362255 0.15718916 97.05712891 3.05630493 C99.96347219 7.00310535 99.49849262 8.84413281 98.96484375 13.64697266 C97.79471149 17.06735926 97.09173652 17.56237748 93.96484375 19.64697266 C91.98546028 19.90982819 91.98546028 19.90982819 89.68948364 19.92785645 C88.81751343 19.93927673 87.94554321 19.95069702 87.04714966 19.96246338 C86.0933139 19.9646991 85.13947815 19.96693481 84.15673828 19.96923828 C82.64657135 19.984133 82.64657135 19.984133 81.105896 19.99932861 C77.76978845 20.02857908 74.43387104 20.04217609 71.09765625 20.05322266 C68.78221632 20.06472416 66.46677646 20.07623964 64.15133667 20.08776855 C59.29407868 20.10879 54.43688693 20.12047462 49.57958984 20.12744141 C43.35261499 20.13841727 37.12651344 20.18648355 30.8998127 20.24338531 C26.11629672 20.28061338 21.33299173 20.29104784 16.54934311 20.29411316 C14.25357152 20.30017203 11.95780391 20.31624895 9.66217422 20.34248352 C6.45135068 20.37656031 3.2426688 20.37285833 0.03173828 20.35986328 C-0.91804901 20.37829285 -1.8678363 20.39672241 -2.84640503 20.41571045 C-9.13557006 20.33589065 -9.13557006 20.33589065 -11.74255753 18.3394165 C-14.07135808 15.63654016 -15.7344861 13.20433658 -15.66015625 9.58447266 C-14.18551335 0.2942224 -7.98442908 -0.08536635 0 0 Z " fill="#FBF8EA" transform="translate(200.03515625,179.35302734375)"/>
<path d="M0 0 C0.77269226 -0.00817749 1.54538452 -0.01635498 2.3414917 -0.02478027 C4.89838897 -0.04959221 7.45523096 -0.06613768 10.01220703 -0.08056641 C10.88582005 -0.08589008 11.75943306 -0.09121376 12.6595192 -0.09669876 C17.28179293 -0.12340951 21.90403982 -0.14279277 26.52636719 -0.15722656 C30.35213057 -0.17057831 34.17736215 -0.19845611 38.00292969 -0.23925781 C42.62299312 -0.28853222 47.24257334 -0.31334078 51.86288834 -0.32045364 C53.62277629 -0.32717134 55.38265324 -0.34240697 57.1423912 -0.36634445 C59.60591708 -0.39794901 62.06757481 -0.39804089 64.53125 -0.390625 C65.61930435 -0.415233 65.61930435 -0.415233 66.7293396 -0.44033813 C70.64806388 -0.39209295 72.2607287 0.08389499 75.34500122 2.58676147 C78.03654832 6.00842203 78.11906161 7.83583214 77.89501953 12.03662109 C77.095027 15.48658887 75.13908958 17.10215105 72.39501953 19.19287109 C69.41721506 20.68177333 66.36946464 20.35755 63.10302734 20.36987305 C62.35159454 20.37644424 61.60016174 20.38301544 60.82595825 20.38978577 C58.3333527 20.40953333 55.84080748 20.42118552 53.34814453 20.43115234 C52.49692772 20.43522787 51.64571091 20.4393034 50.76869965 20.44350243 C46.26198061 20.46437094 41.75529208 20.47866838 37.24853516 20.48803711 C32.59680551 20.49909382 27.94555524 20.53348271 23.2939949 20.57320881 C19.71485515 20.599377 16.13582948 20.60772919 12.55660248 20.61131859 C10.84221922 20.61618527 9.12784108 20.62780164 7.41355133 20.64635658 C5.01018027 20.67074957 2.60804724 20.66978304 0.20458984 20.6628418 C-0.85237595 20.68205688 -0.85237595 20.68205688 -1.93069458 20.70166016 C-6.92224285 20.64927629 -9.76083103 19.32210388 -13.60498047 16.19287109 C-15.33013678 12.74255848 -15.10175971 8.96570805 -14.60498047 5.19287109 C-10.74132771 -0.13630512 -6.10865224 0.03567576 0 0 Z " fill="#F6F3E6" transform="translate(199.60498046875,230.80712890625)"/>
<path d="M0 0 C0.82054871 0.00007553 1.64109741 0.00015106 2.48651123 0.00022888 C3.36269104 0.00539017 4.23887085 0.01055145 5.14160156 0.01586914 C6.49816864 0.01799156 6.49816864 0.01799156 7.88214111 0.02015686 C10.76553683 0.02574628 13.64885439 0.03829686 16.53222656 0.05102539 C18.48925669 0.05604176 20.44628804 0.06060443 22.40332031 0.06469727 C27.19631909 0.07571226 31.98925958 0.09296965 36.78222656 0.11352539 C36.78222656 0.44352539 36.78222656 0.77352539 36.78222656 1.11352539 C35.08864014 1.13539917 35.08864014 1.13539917 33.36083984 1.15771484 C29.12990294 1.21614659 24.89947355 1.29337263 20.66894531 1.37597656 C18.84578757 1.40901646 17.02253269 1.43711198 15.19921875 1.45996094 C0.99830684 1.00662654 0.99830684 1.00662654 -12.21777344 5.11352539 C-13.3668873 7.0552909 -13.3668873 7.0552909 -14.21777344 9.11352539 C-16.21777344 11.36352539 -16.21777344 11.36352539 -18.21777344 13.11352539 C-18.87777344 13.11352539 -19.53777344 13.11352539 -20.21777344 13.11352539 C-20.54777344 13.77352539 -20.87777344 14.43352539 -21.21777344 15.11352539 C-21.13606289 12.33536692 -20.67470506 10.60617404 -18.76855469 8.55102539 C-12.98668692 3.53422039 -7.83054772 -0.02416836 0 0 Z " fill="#E8432A" transform="translate(273.2177734375,337.886474609375)"/>
<path d="M0 0 C-1.44077046 3.36179774 -3.24750021 5.59156268 -6 8 C-6.66 8 -7.32 8 -8 8 C-7.8125 5.125 -7.8125 5.125 -7 2 C-4.52409924 0.60333803 -2.83735815 0 0 0 Z " fill="#EC7057" transform="translate(341,328)"/>
<path d="M0 0 C0 0.66 0 1.32 0 2 C-1.60149886 2.67305018 -3.20631029 3.33822227 -4.8125 4 C-5.70582031 4.37125 -6.59914063 4.7425 -7.51953125 5.125 C-10 6 -10 6 -13 6 C-11.92250558 5.17977251 -10.83770492 4.36913831 -9.75 3.5625 C-9.14671875 3.11003906 -8.5434375 2.65757812 -7.921875 2.19140625 C-5.31259627 0.57386557 -3.05547025 0 0 0 Z " fill="#E34935" transform="translate(271,338)"/>
<path d="M0 0 C0.33 0.99 0.66 1.98 1 3 C-0.43359375 5.04296875 -0.43359375 5.04296875 -2.4375 7.1875 C-3.09621094 7.90292969 -3.75492187 8.61835938 -4.43359375 9.35546875 C-4.95050781 9.89816406 -5.46742188 10.44085938 -6 11 C-6.66 10.34 -7.32 9.68 -8 9 C-5.36 6.03 -2.72 3.06 0 0 Z " fill="#22211F" transform="translate(377,295)"/>
<path d="M0 0 C0.99 0.33 1.98 0.66 3 1 C-0.465 3.97 -0.465 3.97 -4 7 C-4.66 6.67 -5.32 6.34 -6 6 C-4 4 -2 2 0 0 Z " fill="#431714" transform="translate(344,326)"/>
</svg>
